<svg xmlns="http://www.w3.org/2000/svg" viewBox="0 0 8 8" fill="#FF2B34">
  <path
    fill-rule="evenodd"
    clip-rule="evenodd"
    d="M2.97931 1.44397H3.99726C4.18158 1.44397 4.331 1.5934 4.331 1.77772C4.331 1.96204 4.18158 2.11146 3.99726 2.11146H3.00373C2.36498 2.11146 1.91948 2.11218 1.58335 2.15737C1.25683 2.20127 1.08391 2.28157 0.960752 2.40473C0.837597 2.52788 0.757299 2.7008 0.713397 3.02732C0.668206 3.36345 0.667495 3.80895 0.667495 4.44771V4.99624C0.667495 5.635 0.668206 6.08046 0.713397 6.41659C0.757299 6.74313 0.837597 6.91606 0.960752 7.03921C1.08391 7.16237 1.25683 7.24268 1.58335 7.28659C1.91948 7.33175 2.36497 7.33246 3.00373 7.33246H3.55226C4.19101 7.33246 4.63651 7.33175 4.97265 7.28659C5.29918 7.24268 5.47207 7.16237 5.59522 7.03921C5.71838 6.91606 5.79869 6.74313 5.8426 6.41659C5.8878 6.08046 5.88851 5.635 5.88851 4.99624V4.00269C5.88851 3.81838 6.03793 3.66896 6.22224 3.66896C6.40655 3.66896 6.55597 3.81838 6.55597 4.00269V5.02064C6.55602 5.62922 6.55602 6.11975 6.50415 6.50557C6.45028 6.9061 6.33509 7.24335 6.06722 7.51121C5.79935 7.77903 5.46211 7.89428 5.06158 7.9481C4.67576 7.99997 4.18523 7.99996 3.57667 7.99996H2.97931C2.37074 7.99996 1.88021 7.99997 1.49441 7.9481C1.09387 7.89428 0.756615 7.77903 0.488763 7.51121C0.22091 7.24335 0.105706 6.9061 0.0518534 6.50557C-1.62058e-05 6.11975 -8.65683e-06 5.62922 2.32023e-07 5.02064V4.42327C-8.65683e-06 3.81471 -1.62058e-05 3.32418 0.0518534 2.93838C0.105706 2.53784 0.22091 2.20058 0.488763 1.93273C0.756615 1.66488 1.09387 1.54968 1.49441 1.49582C1.88021 1.44395 2.37074 1.44396 2.97931 1.44397Z"
  />
  <path
    fill-rule="evenodd"
    clip-rule="evenodd"
    d="M5.66368 0.667495C5.47937 0.667495 5.32995 0.518073 5.32995 0.33375C5.32995 0.149426 5.47937 0 5.66368 0H7.6662C7.85051 0 7.99993 0.149426 7.99993 0.33375V2.33624C7.99993 2.52056 7.85051 2.66998 7.6662 2.66998C7.48185 2.66998 7.33243 2.52056 7.33243 2.33624V1.13949L4.34222 4.12972C4.21186 4.26007 4.00053 4.26007 3.87021 4.12972C3.73988 3.99939 3.73988 3.78807 3.87021 3.65773L6.86043 0.667495H5.66368Z"
  />
</svg>
